<?xml version="1.0" encoding="utf-8"?>
<!-- Generator: Adobe Illustrator 25.2.0, SVG Export Plug-In . SVG Version: 6.00 Build 0)  -->
<svg version="1.1" id="Layer_1" xmlns="http://www.w3.org/2000/svg" xmlns:xlink="http://www.w3.org/1999/xlink" x="0px" y="0px"
	 viewBox="0 0 130 130" style="enable-background:new 0 0 130 130;" xml:space="preserve">
<style type="text/css">
	.st0{fill:url(#SVGID_1_);}
	.st1{fill:url(#SVGID_2_);}
	.st2{fill:url(#SVGID_3_);}
	.st3{fill:url(#SVGID_4_);}
	.st4{fill:url(#SVGID_5_);}
	.st5{fill:url(#SVGID_6_);}
</style>
<g>
	<linearGradient id="SVGID_1_" gradientUnits="userSpaceOnUse" x1="73.5895" y1="85.829" x2="74.7895" y2="85.829">
		<stop  offset="0" style="stop-color:#5749B8"/>
		<stop  offset="1" style="stop-color:#2BF2DB"/>
	</linearGradient>
	<path class="st0" d="M74.79,86.42c-0.42-0.38-0.82-0.78-1.2-1.18L74.79,86.42z"/>
	<linearGradient id="SVGID_2_" gradientUnits="userSpaceOnUse" x1="78.3834" y1="-3.5334" x2="157.1663" y2="79.4159">
		<stop  offset="0" style="stop-color:#5749B8"/>
		<stop  offset="1" style="stop-color:#2BF2DB"/>
	</linearGradient>
	<path class="st1" d="M107.18,47.95L73.43,15.02c5.77-2.01,11.98-3.11,18.44-3.11c14.17,0,27.1,5.25,36.97,13.93
		c1.35,1.19,1.43,3.26,0.19,4.56l-16.9,17.79c-1.16,1.22-3.04,1.31-4.34,0.24C107.59,48.27,107.39,48.11,107.18,47.95L107.18,47.95z
		"/>
	<linearGradient id="SVGID_3_" gradientUnits="userSpaceOnUse" x1="30.036" y1="42.3857" x2="108.8188" y2="125.3349">
		<stop  offset="0" style="stop-color:#5749B8"/>
		<stop  offset="1" style="stop-color:#2BF2DB"/>
	</linearGradient>
	<path class="st2" d="M128.94,109.94c-0.92,0.81-1.88,1.6-2.86,2.36c-9.24,7.14-20.77,11.45-33.3,11.65
		c-30.71,0.49-56.3-24.13-56.93-54.84c-0.13-6.43,0.82-12.62,2.68-18.4l35.05,34.52l1.2,1.18c4.49,4.15,10.49,6.68,17.08,6.68
		c4.25,0,8.26-1.05,11.77-2.91c1.59-0.84,3.07-1.84,4.43-2.99c1.3-1.09,3.23-0.99,4.38,0.25l16.7,17.95
		C130.36,106.71,130.27,108.76,128.94,109.94z"/>
	<linearGradient id="SVGID_4_" gradientUnits="userSpaceOnUse" x1="50.152" y1="3.7301" x2="95.6215" y2="47.5505">
		<stop  offset="0" style="stop-color:#5749B8"/>
		<stop  offset="1" style="stop-color:#7DF7FB"/>
	</linearGradient>
	<path class="st3" d="M107.18,47.95c-4.24-3.26-9.55-5.19-15.31-5.19c-3.74,0-7.29,0.82-10.49,2.28l-22.63-22.3L41.8,6.04h16.9
		c3.55,0,6.96,1.39,9.49,3.87l5.23,5.11L107.18,47.95z"/>
	<linearGradient id="SVGID_5_" gradientUnits="userSpaceOnUse" x1="8.7686" y1="-17.2199" x2="75.9126" y2="52.7513">
		<stop  offset="0" style="stop-color:#5749B8"/>
		<stop  offset="1" style="stop-color:#7DF7FB"/>
	</linearGradient>
	<path class="st4" d="M81.38,45.04c-5.16,2.37-9.37,6.42-11.95,11.46L46.99,34.39L18.22,6.04H41.8l16.95,16.7L81.38,45.04z"/>
	<linearGradient id="SVGID_6_" gradientUnits="userSpaceOnUse" x1="-27.4139" y1="-19.7427" x2="68.5409" y2="65.8253">
		<stop  offset="0" style="stop-color:#5749B8"/>
		<stop  offset="1" style="stop-color:#7DF7FB"/>
	</linearGradient>
	<path class="st5" d="M73.59,85.24L38.54,50.71L1.42,14.15c-3.01-2.97-0.91-8.1,3.32-8.1h13.48l28.77,28.34L69.44,56.5
		c-1.75,3.43-2.74,7.32-2.74,11.44C66.7,74.63,69.32,80.73,73.59,85.24z"/>
</g>
</svg>
